<mxfile host="Electron" agent="Mozilla/5.0 (X11; Linux x86_64) AppleWebKit/537.36 (KHTML, like Gecko) draw.io/27.0.9 Chrome/134.0.6998.205 Electron/35.4.0 Safari/537.36" version="27.0.9">
  <diagram name="MVP" id="flqb_vgoVWN2gIgyEzhE">
    <mxGraphModel dx="3982" dy="2090" grid="1" gridSize="10" guides="1" tooltips="1" connect="1" arrows="1" fold="1" page="1" pageScale="1" pageWidth="827" pageHeight="1169" math="0" shadow="0">
      <root>
        <mxCell id="0" />
        <mxCell id="1" parent="0" />
        <object placeholders="1" c4Name="МЕДИКАМЕНТЕ" c4Type="SystemScopeBoundary" c4Application="Архитектура" label="&lt;font style=&quot;font-size: 16px&quot;&gt;&lt;b&gt;&lt;div style=&quot;text-align: left&quot;&gt;%c4Name%&lt;/div&gt;&lt;/b&gt;&lt;/font&gt;&lt;div style=&quot;text-align: left&quot;&gt;[%c4Application%]&lt;/div&gt;" id="-rCLtENTZyw--RfLadG2-3">
          <mxCell style="rounded=1;fontSize=11;whiteSpace=wrap;html=1;dashed=1;arcSize=20;fillColor=none;strokeColor=#666666;fontColor=#333333;labelBackgroundColor=none;align=left;verticalAlign=bottom;labelBorderColor=none;spacingTop=0;spacing=10;dashPattern=8 4;metaEdit=1;rotatable=0;perimeter=rectanglePerimeter;noLabel=0;labelPadding=0;allowArrows=0;connectable=0;expand=0;recursiveResize=0;editable=1;pointerEvents=0;absoluteArcSize=1;points=[[0.25,0,0],[0.5,0,0],[0.75,0,0],[1,0.25,0],[1,0.5,0],[1,0.75,0],[0.75,1,0],[0.5,1,0],[0.25,1,0],[0,0.75,0],[0,0.5,0],[0,0.25,0]];" parent="1" vertex="1">
            <mxGeometry x="-1370" y="70" width="1790" height="2000" as="geometry" />
          </mxCell>
        </object>
        <object placeholders="1" c4Name="FileServer" c4Type="ContainerScopeBoundary" c4Application="Container" label="&lt;font style=&quot;font-size: 16px&quot;&gt;&lt;b&gt;&lt;div style=&quot;text-align: left&quot;&gt;%c4Name%&lt;/div&gt;&lt;/b&gt;&lt;/font&gt;&lt;div style=&quot;text-align: left&quot;&gt;[%c4Application%]&lt;/div&gt;" id="-rCLtENTZyw--RfLadG2-2">
          <mxCell style="rounded=1;fontSize=11;whiteSpace=wrap;html=1;dashed=1;arcSize=20;fillColor=none;strokeColor=#666666;fontColor=#333333;labelBackgroundColor=none;align=left;verticalAlign=bottom;labelBorderColor=none;spacingTop=0;spacing=10;dashPattern=8 4;metaEdit=1;rotatable=0;perimeter=rectanglePerimeter;noLabel=0;labelPadding=0;allowArrows=0;connectable=0;expand=0;recursiveResize=0;editable=1;pointerEvents=0;absoluteArcSize=1;points=[[0.25,0,0],[0.5,0,0],[0.75,0,0],[1,0.25,0],[1,0.5,0],[1,0.75,0],[0.75,1,0],[0.5,1,0],[0.25,1,0],[0,0.75,0],[0,0.5,0],[0,0.25,0]];" parent="1" vertex="1">
            <mxGeometry x="-890" y="1370" width="1010" height="500" as="geometry" />
          </mxCell>
        </object>
        <object placeholders="1" c4Name="Administrator" c4Type="Person" c4Description="Сотрудник ресепшена" label="&lt;font style=&quot;font-size: 16px&quot;&gt;&lt;b&gt;%c4Name%&lt;/b&gt;&lt;/font&gt;&lt;div&gt;[%c4Type%]&lt;/div&gt;&lt;br&gt;&lt;div&gt;&lt;font style=&quot;font-size: 11px&quot;&gt;&lt;font color=&quot;#cccccc&quot;&gt;%c4Description%&lt;/font&gt;&lt;/div&gt;" id="-rCLtENTZyw--RfLadG2-6">
          <mxCell style="html=1;fontSize=11;dashed=0;whiteSpace=wrap;fillColor=#083F75;strokeColor=#06315C;fontColor=#ffffff;shape=mxgraph.c4.person2;align=center;metaEdit=1;points=[[0.5,0,0],[1,0.5,0],[1,0.75,0],[0.75,1,0],[0.5,1,0],[0.25,1,0],[0,0.75,0],[0,0.5,0]];resizable=0;" parent="1" vertex="1">
            <mxGeometry x="-1350" y="420" width="200" height="180" as="geometry" />
          </mxCell>
        </object>
        <object placeholders="1" c4Name="Bookkeeper" c4Type="Person" c4Description="Бухгалтер" label="&lt;font style=&quot;font-size: 16px&quot;&gt;&lt;b&gt;%c4Name%&lt;/b&gt;&lt;/font&gt;&lt;div&gt;[%c4Type%]&lt;/div&gt;&lt;br&gt;&lt;div&gt;&lt;font style=&quot;font-size: 11px&quot;&gt;&lt;font color=&quot;#cccccc&quot;&gt;%c4Description%&lt;/font&gt;&lt;/div&gt;" id="-rCLtENTZyw--RfLadG2-7">
          <mxCell style="html=1;fontSize=11;dashed=0;whiteSpace=wrap;fillColor=#083F75;strokeColor=#06315C;fontColor=#ffffff;shape=mxgraph.c4.person2;align=center;metaEdit=1;points=[[0.5,0,0],[1,0.5,0],[1,0.75,0],[0.75,1,0],[0.5,1,0],[0.25,1,0],[0,0.75,0],[0,0.5,0]];resizable=0;" parent="1" vertex="1">
            <mxGeometry x="-1300" y="1360" width="200" height="180" as="geometry" />
          </mxCell>
        </object>
        <object placeholders="1" c4Name="Cassier" c4Type="Person" c4Description="Кассир" label="&lt;font style=&quot;font-size: 16px&quot;&gt;&lt;b&gt;%c4Name%&lt;/b&gt;&lt;/font&gt;&lt;div&gt;[%c4Type%]&lt;/div&gt;&lt;br&gt;&lt;div&gt;&lt;font style=&quot;font-size: 11px&quot;&gt;&lt;font color=&quot;#cccccc&quot;&gt;%c4Description%&lt;/font&gt;&lt;/div&gt;" id="-rCLtENTZyw--RfLadG2-8">
          <mxCell style="html=1;fontSize=11;dashed=0;whiteSpace=wrap;fillColor=#083F75;strokeColor=#06315C;fontColor=#ffffff;shape=mxgraph.c4.person2;align=center;metaEdit=1;points=[[0.5,0,0],[1,0.5,0],[1,0.75,0],[0.75,1,0],[0.5,1,0],[0.25,1,0],[0,0.75,0],[0,0.5,0]];resizable=0;" parent="1" vertex="1">
            <mxGeometry x="480" y="1697.5" width="200" height="180" as="geometry" />
          </mxCell>
        </object>
        <object placeholders="1" c4Name="Patient" c4Type="Person" c4Description="Пациент" label="&lt;font style=&quot;font-size: 16px&quot;&gt;&lt;b&gt;%c4Name%&lt;/b&gt;&lt;/font&gt;&lt;div&gt;[%c4Type%]&lt;/div&gt;&lt;br&gt;&lt;div&gt;&lt;font style=&quot;font-size: 11px&quot;&gt;&lt;font color=&quot;#cccccc&quot;&gt;%c4Description%&lt;/font&gt;&lt;/div&gt;" id="-rCLtENTZyw--RfLadG2-9">
          <mxCell style="html=1;fontSize=11;dashed=0;whiteSpace=wrap;fillColor=#6C6477;strokeColor=#4D4D4D;fontColor=#ffffff;shape=mxgraph.c4.person2;align=center;metaEdit=1;points=[[0.5,0,0],[1,0.5,0],[1,0.75,0],[0.75,1,0],[0.5,1,0],[0.25,1,0],[0,0.75,0],[0,0.5,0]];resizable=0;" parent="1" vertex="1">
            <mxGeometry x="480" y="1350" width="200" height="180" as="geometry" />
          </mxCell>
        </object>
        <object placeholders="1" c4Name="1C Бухгалтерия предприятия" c4Type="Software System" c4Description="Бухгалтерская система учёта. Работает в файловом режиме" label="&lt;font style=&quot;font-size: 16px&quot;&gt;&lt;b&gt;%c4Name%&lt;/b&gt;&lt;/font&gt;&lt;div&gt;[%c4Type%]&lt;/div&gt;&lt;br&gt;&lt;div&gt;&lt;font style=&quot;font-size: 11px&quot;&gt;&lt;font color=&quot;#cccccc&quot;&gt;%c4Description%&lt;/font&gt;&lt;/div&gt;" id="-rCLtENTZyw--RfLadG2-20">
          <mxCell style="rounded=1;whiteSpace=wrap;html=1;labelBackgroundColor=none;fillColor=#1061B0;fontColor=#ffffff;align=center;arcSize=10;strokeColor=#0D5091;metaEdit=1;resizable=0;points=[[0.25,0,0],[0.5,0,0],[0.75,0,0],[1,0.25,0],[1,0.5,0],[1,0.75,0],[0.75,1,0],[0.5,1,0],[0.25,1,0],[0,0.75,0],[0,0.5,0],[0,0.25,0]];" parent="1" vertex="1">
            <mxGeometry x="-780" y="1422.5" width="240" height="120" as="geometry" />
          </mxCell>
        </object>
        <object placeholders="1" c4Name="ККМ" c4Type="Software System" c4Description="Контрольно-кассовая машина" label="&lt;font style=&quot;font-size: 16px&quot;&gt;&lt;b&gt;%c4Name%&lt;/b&gt;&lt;/font&gt;&lt;div&gt;[%c4Type%]&lt;/div&gt;&lt;br&gt;&lt;div&gt;&lt;font style=&quot;font-size: 11px&quot;&gt;&lt;font color=&quot;#cccccc&quot;&gt;%c4Description%&lt;/font&gt;&lt;/div&gt;" id="-rCLtENTZyw--RfLadG2-21">
          <mxCell style="rounded=1;whiteSpace=wrap;html=1;labelBackgroundColor=none;fillColor=#1061B0;fontColor=#ffffff;align=center;arcSize=10;strokeColor=#0D5091;metaEdit=1;resizable=0;points=[[0.25,0,0],[0.5,0,0],[0.75,0,0],[1,0.25,0],[1,0.5,0],[1,0.75,0],[0.75,1,0],[0.5,1,0],[0.25,1,0],[0,0.75,0],[0,0.5,0],[0,0.25,0]];" parent="1" vertex="1">
            <mxGeometry x="-140" y="1910" width="240" height="120" as="geometry" />
          </mxCell>
        </object>
        <object placeholders="1" c4Name="Exchange Mail Server" c4Type="Software System" c4Description="Почтовый сервис внутренней почты" label="&lt;font style=&quot;font-size: 16px&quot;&gt;&lt;b&gt;%c4Name%&lt;/b&gt;&lt;/font&gt;&lt;div&gt;[%c4Type%]&lt;/div&gt;&lt;br&gt;&lt;div&gt;&lt;font style=&quot;font-size: 11px&quot;&gt;&lt;font color=&quot;#cccccc&quot;&gt;%c4Description%&lt;/font&gt;&lt;/div&gt;" id="-rCLtENTZyw--RfLadG2-22">
          <mxCell style="rounded=1;whiteSpace=wrap;html=1;labelBackgroundColor=none;fillColor=#1061B0;fontColor=#ffffff;align=center;arcSize=10;strokeColor=#0D5091;metaEdit=1;resizable=0;points=[[0.25,0,0],[0.5,0,0],[0.75,0,0],[1,0.25,0],[1,0.5,0],[1,0.75,0],[0.75,1,0],[0.5,1,0],[0.25,1,0],[0,0.75,0],[0,0.5,0],[0,0.25,0]];" parent="1" vertex="1">
            <mxGeometry x="-780" y="1730" width="240" height="120" as="geometry" />
          </mxCell>
        </object>
        <object placeholders="1" c4Name="1C Торговля и склад" c4Type="Software System" c4Description="Складская система учёта. Работает в файловом режиме" label="&lt;font style=&quot;font-size: 16px&quot;&gt;&lt;b&gt;%c4Name%&lt;/b&gt;&lt;/font&gt;&lt;div&gt;[%c4Type%]&lt;/div&gt;&lt;br&gt;&lt;div&gt;&lt;font style=&quot;font-size: 11px&quot;&gt;&lt;font color=&quot;#cccccc&quot;&gt;%c4Description%&lt;/font&gt;&lt;/div&gt;" id="09KiZqYfXbnlfeXMHTuH-11">
          <mxCell style="rounded=1;whiteSpace=wrap;html=1;labelBackgroundColor=none;fillColor=#1061B0;fontColor=#ffffff;align=center;arcSize=10;strokeColor=#0D5091;metaEdit=1;resizable=0;points=[[0.25,0,0],[0.5,0,0],[0.75,0,0],[1,0.25,0],[1,0.5,0],[1,0.75,0],[0.75,1,0],[0.5,1,0],[0.25,1,0],[0,0.75,0],[0,0.5,0],[0,0.25,0]];" parent="1" vertex="1">
            <mxGeometry x="-780" y="1577.5" width="240" height="120" as="geometry" />
          </mxCell>
        </object>
        <object placeholders="1" c4Name="Warehouse keeper" c4Type="Person" c4Description="Сотрудник склада" label="&lt;font style=&quot;font-size: 16px&quot;&gt;&lt;b&gt;%c4Name%&lt;/b&gt;&lt;/font&gt;&lt;div&gt;[%c4Type%]&lt;/div&gt;&lt;br&gt;&lt;div&gt;&lt;font style=&quot;font-size: 11px&quot;&gt;&lt;font color=&quot;#cccccc&quot;&gt;%c4Description%&lt;/font&gt;&lt;/div&gt;" id="09KiZqYfXbnlfeXMHTuH-12">
          <mxCell style="html=1;fontSize=11;dashed=0;whiteSpace=wrap;fillColor=#083F75;strokeColor=#06315C;fontColor=#ffffff;shape=mxgraph.c4.person2;align=center;metaEdit=1;points=[[0.5,0,0],[1,0.5,0],[1,0.75,0],[0.75,1,0],[0.5,1,0],[0.25,1,0],[0,0.75,0],[0,0.5,0]];resizable=0;" parent="1" vertex="1">
            <mxGeometry x="-1300" y="1640" width="200" height="180" as="geometry" />
          </mxCell>
        </object>
        <object placeholders="1" c4Type="Relationship" c4Technology="OLE" c4Description="Внутриплатформенный обмен данными" label="&lt;div style=&quot;text-align: left&quot;&gt;&lt;div style=&quot;text-align: center&quot;&gt;&lt;b&gt;%c4Description%&lt;/b&gt;&lt;/div&gt;&lt;div style=&quot;text-align: center&quot;&gt;[%c4Technology%]&lt;/div&gt;&lt;/div&gt;" id="09KiZqYfXbnlfeXMHTuH-14">
          <mxCell style="endArrow=blockThin;html=1;fontSize=10;fontColor=#404040;strokeWidth=1;endFill=1;strokeColor=#828282;elbow=vertical;metaEdit=1;endSize=14;startSize=14;jumpStyle=arc;jumpSize=16;rounded=0;edgeStyle=orthogonalEdgeStyle;exitX=1;exitY=0.75;exitDx=0;exitDy=0;exitPerimeter=0;entryX=1;entryY=0.25;entryDx=0;entryDy=0;entryPerimeter=0;startArrow=blockThin;startFill=1;" parent="1" source="-rCLtENTZyw--RfLadG2-20" target="09KiZqYfXbnlfeXMHTuH-11" edge="1">
            <mxGeometry width="240" relative="1" as="geometry">
              <mxPoint x="-690" y="1557.5" as="sourcePoint" />
              <mxPoint x="-450" y="1557.5" as="targetPoint" />
              <Array as="points">
                <mxPoint x="-420" y="1513" />
                <mxPoint x="-420" y="1608" />
              </Array>
            </mxGeometry>
          </mxCell>
        </object>
        <object placeholders="1" c4Type="Relationship" c4Description="Учет ТМЦ" label="&lt;div style=&quot;text-align: left&quot;&gt;&lt;div style=&quot;text-align: center&quot;&gt;&lt;b&gt;%c4Description%&lt;/b&gt;&lt;/div&gt;" id="09KiZqYfXbnlfeXMHTuH-15">
          <mxCell style="endArrow=blockThin;html=1;fontSize=10;fontColor=#404040;strokeWidth=1;endFill=1;strokeColor=#828282;elbow=vertical;metaEdit=1;endSize=14;startSize=14;jumpStyle=arc;jumpSize=16;rounded=0;edgeStyle=orthogonalEdgeStyle;exitX=1;exitY=0.5;exitDx=0;exitDy=0;exitPerimeter=0;entryX=0;entryY=0.5;entryDx=0;entryDy=0;entryPerimeter=0;" parent="1" source="09KiZqYfXbnlfeXMHTuH-12" target="09KiZqYfXbnlfeXMHTuH-11" edge="1">
            <mxGeometry width="240" relative="1" as="geometry">
              <mxPoint x="-900" y="1630" as="sourcePoint" />
              <mxPoint x="-660" y="1630" as="targetPoint" />
            </mxGeometry>
          </mxCell>
        </object>
        <object placeholders="1" c4Type="Relationship" c4Description="Процессинг платежей" label="&lt;div style=&quot;text-align: left&quot;&gt;&lt;div style=&quot;text-align: center&quot;&gt;&lt;b&gt;%c4Description%&lt;/b&gt;&lt;/div&gt;" id="09KiZqYfXbnlfeXMHTuH-16">
          <mxCell style="endArrow=blockThin;html=1;fontSize=10;fontColor=#404040;strokeWidth=1;endFill=1;strokeColor=#828282;elbow=vertical;metaEdit=1;endSize=14;startSize=14;jumpStyle=arc;jumpSize=16;rounded=0;edgeStyle=orthogonalEdgeStyle;exitX=1;exitY=0.5;exitDx=0;exitDy=0;exitPerimeter=0;entryX=0;entryY=0.5;entryDx=0;entryDy=0;entryPerimeter=0;" parent="1" source="-rCLtENTZyw--RfLadG2-7" target="-rCLtENTZyw--RfLadG2-20" edge="1">
            <mxGeometry width="240" relative="1" as="geometry">
              <mxPoint x="-1230" y="1680" as="sourcePoint" />
              <mxPoint x="-770" y="1648" as="targetPoint" />
            </mxGeometry>
          </mxCell>
        </object>
        <object placeholders="1" c4Type="Relationship" c4Technology="TCP/IP-OLE" c4Description="Информация о принятии денежных средств" label="&lt;div style=&quot;text-align: left&quot;&gt;&lt;div style=&quot;text-align: center&quot;&gt;&lt;b&gt;%c4Description%&lt;/b&gt;&lt;/div&gt;&lt;div style=&quot;text-align: center&quot;&gt;[%c4Technology%]&lt;/div&gt;&lt;/div&gt;" id="09KiZqYfXbnlfeXMHTuH-17">
          <mxCell style="endArrow=blockThin;html=1;fontSize=10;fontColor=#404040;strokeWidth=1;endFill=1;strokeColor=#828282;elbow=vertical;metaEdit=1;endSize=14;startSize=14;jumpStyle=arc;jumpSize=16;rounded=0;edgeStyle=orthogonalEdgeStyle;exitX=0;exitY=0.5;exitDx=0;exitDy=0;exitPerimeter=0;entryX=1;entryY=0.25;entryDx=0;entryDy=0;entryPerimeter=0;startArrow=none;startFill=0;" parent="1" source="-rCLtENTZyw--RfLadG2-21" target="-rCLtENTZyw--RfLadG2-20" edge="1">
            <mxGeometry x="0.1771" width="240" relative="1" as="geometry">
              <mxPoint x="-530" y="1493" as="sourcePoint" />
              <mxPoint x="-530" y="1618" as="targetPoint" />
              <Array as="points">
                <mxPoint x="-230" y="1970" />
                <mxPoint x="-230" y="1453" />
              </Array>
              <mxPoint as="offset" />
            </mxGeometry>
          </mxCell>
        </object>
        <object placeholders="1" c4Type="Relationship" c4Description="Принятие оплаты" label="&lt;div style=&quot;text-align: left&quot;&gt;&lt;div style=&quot;text-align: center&quot;&gt;&lt;b&gt;%c4Description%&lt;/b&gt;&lt;/div&gt;" id="09KiZqYfXbnlfeXMHTuH-18">
          <mxCell style="endArrow=blockThin;html=1;fontSize=10;fontColor=#404040;strokeWidth=1;endFill=1;strokeColor=#828282;elbow=vertical;metaEdit=1;endSize=14;startSize=14;jumpStyle=arc;jumpSize=16;rounded=0;edgeStyle=orthogonalEdgeStyle;exitX=0;exitY=0.75;exitDx=0;exitDy=0;exitPerimeter=0;entryX=1;entryY=0.5;entryDx=0;entryDy=0;entryPerimeter=0;" parent="1" source="-rCLtENTZyw--RfLadG2-8" target="-rCLtENTZyw--RfLadG2-21" edge="1">
            <mxGeometry width="240" relative="1" as="geometry">
              <mxPoint x="-894" y="2122" as="sourcePoint" />
              <mxPoint x="-434" y="2090" as="targetPoint" />
              <Array as="points">
                <mxPoint x="280" y="1832" />
                <mxPoint x="280" y="1970" />
              </Array>
              <mxPoint as="offset" />
            </mxGeometry>
          </mxCell>
        </object>
        <object placeholders="1" c4Type="Relationship" c4Description="Запись пациента к специалисту&#xa;Регистрация пациента в системе&#xa;Загрузка сканов документов" label="&lt;div style=&quot;text-align: left&quot;&gt;&lt;div style=&quot;text-align: center&quot;&gt;&lt;b&gt;%c4Description%&lt;/b&gt;&lt;/div&gt;" id="09KiZqYfXbnlfeXMHTuH-19">
          <mxCell style="endArrow=blockThin;html=1;fontSize=10;fontColor=#404040;strokeWidth=1;endFill=1;strokeColor=#828282;elbow=vertical;metaEdit=1;endSize=14;startSize=14;jumpStyle=arc;jumpSize=16;rounded=0;edgeStyle=orthogonalEdgeStyle;exitX=1;exitY=0.5;exitDx=0;exitDy=0;exitPerimeter=0;entryX=0;entryY=0.75;entryDx=0;entryDy=0;entryPerimeter=0;" parent="1" source="-rCLtENTZyw--RfLadG2-6" target="4zln1qysueoRD7-S1MVT-30" edge="1">
            <mxGeometry width="240" relative="1" as="geometry">
              <mxPoint x="-1090" y="1460" as="sourcePoint" />
              <mxPoint x="-720" y="880" as="targetPoint" />
              <Array as="points">
                <mxPoint x="-920" y="530" />
                <mxPoint x="-920" y="430" />
              </Array>
            </mxGeometry>
          </mxCell>
        </object>
        <object placeholders="1" c4Name="Doctor" c4Type="Person" c4Description="Специалист-медик" label="&lt;font style=&quot;font-size: 16px&quot;&gt;&lt;b&gt;%c4Name%&lt;/b&gt;&lt;/font&gt;&lt;div&gt;[%c4Type%]&lt;/div&gt;&lt;br&gt;&lt;div&gt;&lt;font style=&quot;font-size: 11px&quot;&gt;&lt;font color=&quot;#cccccc&quot;&gt;%c4Description%&lt;/font&gt;&lt;/div&gt;" id="09KiZqYfXbnlfeXMHTuH-22">
          <mxCell style="html=1;fontSize=11;dashed=0;whiteSpace=wrap;fillColor=#083F75;strokeColor=#06315C;fontColor=#ffffff;shape=mxgraph.c4.person2;align=center;metaEdit=1;points=[[0.5,0,0],[1,0.5,0],[1,0.75,0],[0.75,1,0],[0.5,1,0],[0.25,1,0],[0,0.75,0],[0,0.5,0]];resizable=0;" parent="1" vertex="1">
            <mxGeometry x="-1350" y="90" width="200" height="180" as="geometry" />
          </mxCell>
        </object>
        <object placeholders="1" c4Type="Relationship" c4Description="Просмотр и редактирование своего журнала&#xa;Редактирование карты пациента&#xa;Загрузка файлов с результатами анализов" label="&lt;div style=&quot;&quot;&gt;&lt;div style=&quot;&quot;&gt;&lt;b&gt;%c4Description%&lt;/b&gt;&lt;/div&gt;&lt;/div&gt;" id="09KiZqYfXbnlfeXMHTuH-23">
          <mxCell style="endArrow=blockThin;html=1;fontSize=10;fontColor=#404040;strokeWidth=1;endFill=1;strokeColor=#828282;elbow=vertical;metaEdit=1;endSize=14;startSize=14;jumpStyle=arc;jumpSize=16;rounded=0;edgeStyle=orthogonalEdgeStyle;exitX=0.5;exitY=1;exitDx=0;exitDy=0;exitPerimeter=0;entryX=0;entryY=0.25;entryDx=0;entryDy=0;entryPerimeter=0;align=left;" parent="1" source="09KiZqYfXbnlfeXMHTuH-22" target="4zln1qysueoRD7-S1MVT-30" edge="1">
            <mxGeometry x="-0.3793" y="30" width="240" relative="1" as="geometry">
              <mxPoint x="-1080" y="810" as="sourcePoint" />
              <mxPoint x="-570" y="270" as="targetPoint" />
              <Array as="points">
                <mxPoint x="-1190" y="300" />
                <mxPoint x="-920" y="300" />
                <mxPoint x="-920" y="370" />
              </Array>
              <mxPoint as="offset" />
            </mxGeometry>
          </mxCell>
        </object>
        <object placeholders="1" c4Type="Relationship" c4Description="Оплата за медицинские услуги" label="&lt;div style=&quot;text-align: left&quot;&gt;&lt;div style=&quot;text-align: center&quot;&gt;&lt;b&gt;%c4Description%&lt;/b&gt;&lt;/div&gt;" id="09KiZqYfXbnlfeXMHTuH-24">
          <mxCell style="endArrow=blockThin;html=1;fontSize=10;fontColor=#404040;strokeWidth=1;endFill=1;strokeColor=#828282;elbow=vertical;metaEdit=1;endSize=14;startSize=14;jumpStyle=arc;jumpSize=16;rounded=0;edgeStyle=orthogonalEdgeStyle;exitX=0.5;exitY=1;exitDx=0;exitDy=0;exitPerimeter=0;entryX=0.5;entryY=0;entryDx=0;entryDy=0;entryPerimeter=0;" parent="1" source="-rCLtENTZyw--RfLadG2-9" target="-rCLtENTZyw--RfLadG2-8" edge="1">
            <mxGeometry width="240" relative="1" as="geometry">
              <mxPoint x="490" y="1842" as="sourcePoint" />
              <mxPoint x="580" y="1700" as="targetPoint" />
              <Array as="points">
                <mxPoint x="580" y="1580" />
                <mxPoint x="580" y="1580" />
              </Array>
              <mxPoint as="offset" />
            </mxGeometry>
          </mxCell>
        </object>
        <object placeholders="1" c4Name="Laboratory" c4Type="Software System" c4Description="Медицинская лаборатория" label="&lt;font style=&quot;font-size: 16px&quot;&gt;&lt;b&gt;%c4Name%&lt;/b&gt;&lt;/font&gt;&lt;div&gt;[%c4Type%]&lt;/div&gt;&lt;br&gt;&lt;div&gt;&lt;font style=&quot;font-size: 11px&quot;&gt;&lt;font color=&quot;#cccccc&quot;&gt;%c4Description%&lt;/font&gt;&lt;/div&gt;" id="09KiZqYfXbnlfeXMHTuH-25">
          <mxCell style="rounded=1;whiteSpace=wrap;html=1;labelBackgroundColor=none;fillColor=#8C8496;fontColor=#ffffff;align=center;arcSize=10;strokeColor=#736782;metaEdit=1;resizable=0;points=[[0.25,0,0],[0.5,0,0],[0.75,0,0],[1,0.25,0],[1,0.5,0],[1,0.75,0],[0.75,1,0],[0.5,1,0],[0.25,1,0],[0,0.75,0],[0,0.5,0],[0,0.25,0]];" parent="1" vertex="1">
            <mxGeometry x="610" y="100" width="240" height="120" as="geometry" />
          </mxCell>
        </object>
        <object placeholders="1" c4Name="EMR-DB" c4Type="Container" c4Technology="Vitess" c4Description="Cloud based database" label="&lt;font style=&quot;font-size: 16px&quot;&gt;&lt;b&gt;%c4Name%&lt;/b&gt;&lt;/font&gt;&lt;div&gt;[%c4Type%:&amp;nbsp;%c4Technology%]&lt;/div&gt;&lt;br&gt;&lt;div&gt;&lt;font style=&quot;font-size: 11px&quot;&gt;&lt;font color=&quot;#E6E6E6&quot;&gt;%c4Description%&lt;/font&gt;&lt;/div&gt;" id="4zln1qysueoRD7-S1MVT-3">
          <mxCell style="shape=cylinder3;size=15;whiteSpace=wrap;html=1;boundedLbl=1;rounded=0;labelBackgroundColor=none;fillColor=#23A2D9;fontSize=12;fontColor=#ffffff;align=center;strokeColor=#0E7DAD;metaEdit=1;points=[[0.5,0,0],[1,0.25,0],[1,0.5,0],[1,0.75,0],[0.5,1,0],[0,0.75,0],[0,0.5,0],[0,0.25,0]];resizable=0;" vertex="1" parent="1">
            <mxGeometry x="-790" y="900" width="240" height="120" as="geometry" />
          </mxCell>
        </object>
        <object placeholders="1" c4Name="EMR" c4Type="Container" c4Technology="OpenMRS: Java, Spring, Hibernate" c4Description="Система электронных карт и управления мед. услугами" label="&lt;font style=&quot;font-size: 16px&quot;&gt;&lt;b&gt;%c4Name%&lt;/b&gt;&lt;/font&gt;&lt;div&gt;[%c4Type%: %c4Technology%]&lt;/div&gt;&lt;br&gt;&lt;div&gt;&lt;font style=&quot;font-size: 11px&quot;&gt;&lt;font color=&quot;#E6E6E6&quot;&gt;%c4Description%&lt;/font&gt;&lt;/div&gt;" id="4zln1qysueoRD7-S1MVT-6">
          <mxCell style="rounded=1;whiteSpace=wrap;html=1;fontSize=11;labelBackgroundColor=none;fillColor=#23A2D9;fontColor=#ffffff;align=center;arcSize=10;strokeColor=#0E7DAD;metaEdit=1;resizable=0;points=[[0.25,0,0],[0.5,0,0],[0.75,0,0],[1,0.25,0],[1,0.5,0],[1,0.75,0],[0.75,1,0],[0.5,1,0],[0.25,1,0],[0,0.75,0],[0,0.5,0],[0,0.25,0]];" vertex="1" parent="1">
            <mxGeometry x="-413" y="480" width="240" height="120" as="geometry" />
          </mxCell>
        </object>
        <object placeholders="1" c4Name="S3" c4Type="Container" c4Technology="Object Storage" c4Description="" label="&lt;font style=&quot;font-size: 16px&quot;&gt;&lt;b&gt;%c4Name%&lt;/b&gt;&lt;/font&gt;&lt;div&gt;[%c4Type%:&amp;nbsp;%c4Technology%]&lt;/div&gt;&lt;br&gt;&lt;div&gt;&lt;font style=&quot;font-size: 11px&quot;&gt;&lt;font color=&quot;#E6E6E6&quot;&gt;%c4Description%&lt;/font&gt;&lt;/div&gt;" id="4zln1qysueoRD7-S1MVT-7">
          <mxCell style="shape=cylinder3;size=15;whiteSpace=wrap;html=1;boundedLbl=1;rounded=0;labelBackgroundColor=none;fillColor=#23A2D9;fontSize=12;fontColor=#ffffff;align=center;strokeColor=#0E7DAD;metaEdit=1;points=[[0.5,0,0],[1,0.25,0],[1,0.5,0],[1,0.75,0],[0.5,1,0],[0,0.75,0],[0,0.5,0],[0,0.25,0]];resizable=0;" vertex="1" parent="1">
            <mxGeometry x="-520" y="900" width="240" height="120" as="geometry" />
          </mxCell>
        </object>
        <mxCell id="4zln1qysueoRD7-S1MVT-19" style="edgeStyle=orthogonalEdgeStyle;rounded=0;orthogonalLoop=1;jettySize=auto;html=1;" edge="1" parent="1" source="4zln1qysueoRD7-S1MVT-8" target="4zln1qysueoRD7-S1MVT-18">
          <mxGeometry relative="1" as="geometry" />
        </mxCell>
        <mxCell id="4zln1qysueoRD7-S1MVT-45" value="Получет данные сотрудников&lt;br&gt;(учетные записи, группы)&lt;br&gt;[TCP]" style="edgeLabel;html=1;align=center;verticalAlign=middle;resizable=0;points=[];" vertex="1" connectable="0" parent="4zln1qysueoRD7-S1MVT-19">
          <mxGeometry x="0.6833" y="-1" relative="1" as="geometry">
            <mxPoint as="offset" />
          </mxGeometry>
        </mxCell>
        <object placeholders="1" c4Name="IAM" c4Type="Container" c4Technology="Keycloak" c4Description="Определяет роли для всех пользователей" label="&lt;font style=&quot;font-size: 16px&quot;&gt;&lt;b&gt;%c4Name%&lt;/b&gt;&lt;/font&gt;&lt;div&gt;[%c4Type%: %c4Technology%]&lt;/div&gt;&lt;br&gt;&lt;div&gt;&lt;font style=&quot;font-size: 11px&quot;&gt;&lt;font color=&quot;#E6E6E6&quot;&gt;%c4Description%&lt;/font&gt;&lt;/div&gt;" id="4zln1qysueoRD7-S1MVT-8">
          <mxCell style="rounded=1;whiteSpace=wrap;html=1;fontSize=11;labelBackgroundColor=none;fillColor=#23A2D9;fontColor=#ffffff;align=center;arcSize=10;strokeColor=#0E7DAD;metaEdit=1;resizable=0;points=[[0.25,0,0],[0.5,0,0],[0.75,0,0],[1,0.25,0],[1,0.5,0],[1,0.75,0],[0.75,1,0],[0.5,1,0],[0.25,1,0],[0,0.75,0],[0,0.5,0],[0,0.25,0]];" vertex="1" parent="1">
            <mxGeometry x="-70" y="480" width="240" height="120" as="geometry" />
          </mxCell>
        </object>
        <mxCell id="4zln1qysueoRD7-S1MVT-11" style="edgeStyle=orthogonalEdgeStyle;rounded=0;orthogonalLoop=1;jettySize=auto;html=1;exitX=0.25;exitY=1;exitDx=0;exitDy=0;exitPerimeter=0;entryX=0.5;entryY=0;entryDx=0;entryDy=0;entryPerimeter=0;" edge="1" parent="1" source="4zln1qysueoRD7-S1MVT-6" target="4zln1qysueoRD7-S1MVT-7">
          <mxGeometry relative="1" as="geometry" />
        </mxCell>
        <mxCell id="4zln1qysueoRD7-S1MVT-57" value="Сохранение и получение файлов&lt;br&gt;импортированных, а так же новых, &lt;br&gt;данные из которых не перенесены в EMR-DB&lt;br&gt;[HTTPS, LAN]" style="edgeLabel;html=1;align=center;verticalAlign=middle;resizable=0;points=[];" vertex="1" connectable="0" parent="4zln1qysueoRD7-S1MVT-11">
          <mxGeometry x="0.4267" y="2" relative="1" as="geometry">
            <mxPoint as="offset" />
          </mxGeometry>
        </mxCell>
        <mxCell id="4zln1qysueoRD7-S1MVT-12" style="edgeStyle=orthogonalEdgeStyle;rounded=0;orthogonalLoop=1;jettySize=auto;html=1;" edge="1" parent="1" source="4zln1qysueoRD7-S1MVT-6" target="4zln1qysueoRD7-S1MVT-8">
          <mxGeometry relative="1" as="geometry" />
        </mxCell>
        <mxCell id="4zln1qysueoRD7-S1MVT-118" value="Проверка прав&lt;br&gt;[HTTPS, LAN]" style="edgeLabel;html=1;align=center;verticalAlign=middle;resizable=0;points=[];" vertex="1" connectable="0" parent="4zln1qysueoRD7-S1MVT-12">
          <mxGeometry x="0.0874" y="2" relative="1" as="geometry">
            <mxPoint x="-13" y="2" as="offset" />
          </mxGeometry>
        </mxCell>
        <mxCell id="4zln1qysueoRD7-S1MVT-14" style="edgeStyle=orthogonalEdgeStyle;rounded=0;orthogonalLoop=1;jettySize=auto;html=1;entryX=0.5;entryY=0;entryDx=0;entryDy=0;entryPerimeter=0;exitX=0;exitY=0.75;exitDx=0;exitDy=0;exitPerimeter=0;" edge="1" parent="1" source="4zln1qysueoRD7-S1MVT-6" target="4zln1qysueoRD7-S1MVT-3">
          <mxGeometry relative="1" as="geometry">
            <Array as="points">
              <mxPoint x="-520" y="570" />
              <mxPoint x="-520" y="710" />
              <mxPoint x="-670" y="710" />
            </Array>
          </mxGeometry>
        </mxCell>
        <mxCell id="4zln1qysueoRD7-S1MVT-58" value="&lt;br&gt;Хранение данных EMR: &lt;br&gt;сотрудники&lt;br&gt;рассписания&lt;br&gt;пациенты&lt;br&gt;карты пациентов&lt;br&gt;&lt;br&gt;[TCP]" style="edgeLabel;html=1;align=center;verticalAlign=middle;resizable=0;points=[];" vertex="1" connectable="0" parent="4zln1qysueoRD7-S1MVT-14">
          <mxGeometry x="0.806" relative="1" as="geometry">
            <mxPoint y="-43" as="offset" />
          </mxGeometry>
        </mxCell>
        <mxCell id="4zln1qysueoRD7-S1MVT-16" style="edgeStyle=orthogonalEdgeStyle;rounded=0;orthogonalLoop=1;jettySize=auto;html=1;" edge="1" parent="1" source="4zln1qysueoRD7-S1MVT-15" target="4zln1qysueoRD7-S1MVT-6">
          <mxGeometry relative="1" as="geometry">
            <Array as="points">
              <mxPoint x="-293" y="760" />
            </Array>
          </mxGeometry>
        </mxCell>
        <mxCell id="4zln1qysueoRD7-S1MVT-56" value="Получение свободных слотов для записи&lt;br&gt;Создание записи на прием&lt;br&gt;[HTTPS, LAN]" style="edgeLabel;html=1;align=left;verticalAlign=middle;resizable=0;points=[];" vertex="1" connectable="0" parent="4zln1qysueoRD7-S1MVT-16">
          <mxGeometry x="0.364" y="1" relative="1" as="geometry">
            <mxPoint x="-36" y="-24" as="offset" />
          </mxGeometry>
        </mxCell>
        <mxCell id="4zln1qysueoRD7-S1MVT-21" style="edgeStyle=orthogonalEdgeStyle;rounded=0;orthogonalLoop=1;jettySize=auto;html=1;" edge="1" parent="1" source="4zln1qysueoRD7-S1MVT-15" target="4zln1qysueoRD7-S1MVT-17">
          <mxGeometry relative="1" as="geometry" />
        </mxCell>
        <mxCell id="4zln1qysueoRD7-S1MVT-59" value="[TCP]" style="edgeLabel;html=1;align=center;verticalAlign=middle;resizable=0;points=[];" vertex="1" connectable="0" parent="4zln1qysueoRD7-S1MVT-21">
          <mxGeometry x="-0.0995" y="2" relative="1" as="geometry">
            <mxPoint as="offset" />
          </mxGeometry>
        </mxCell>
        <object placeholders="1" c4Name="PublicPortal-back" c4Type="Container" c4Technology="Java, SpringBoot" c4Description="Description of container role/responsibility." label="&lt;font style=&quot;font-size: 16px&quot;&gt;&lt;b&gt;%c4Name%&lt;/b&gt;&lt;/font&gt;&lt;div&gt;[%c4Type%: %c4Technology%]&lt;/div&gt;&lt;br&gt;&lt;div&gt;&lt;font style=&quot;font-size: 11px&quot;&gt;&lt;font color=&quot;#E6E6E6&quot;&gt;%c4Description%&lt;/font&gt;&lt;/div&gt;" id="4zln1qysueoRD7-S1MVT-15">
          <mxCell style="rounded=1;whiteSpace=wrap;html=1;fontSize=11;labelBackgroundColor=none;fillColor=#23A2D9;fontColor=#ffffff;align=center;arcSize=10;strokeColor=#0E7DAD;metaEdit=1;resizable=0;points=[[0.25,0,0],[0.5,0,0],[0.75,0,0],[1,0.25,0],[1,0.5,0],[1,0.75,0],[0.75,1,0],[0.5,1,0],[0.25,1,0],[0,0.75,0],[0,0.5,0],[0,0.25,0]];" vertex="1" parent="1">
            <mxGeometry x="-220" y="710" width="240" height="120" as="geometry" />
          </mxCell>
        </object>
        <object placeholders="1" c4Name="PublicPortal-DB" c4Type="Container" c4Technology="Vitess" c4Description="Cloud based database" label="&lt;font style=&quot;font-size: 16px&quot;&gt;&lt;b&gt;%c4Name%&lt;/b&gt;&lt;/font&gt;&lt;div&gt;[%c4Type%:&amp;nbsp;%c4Technology%]&lt;/div&gt;&lt;br&gt;&lt;div&gt;&lt;font style=&quot;font-size: 11px&quot;&gt;&lt;font color=&quot;#E6E6E6&quot;&gt;%c4Description%&lt;/font&gt;&lt;/div&gt;" id="4zln1qysueoRD7-S1MVT-17">
          <mxCell style="shape=cylinder3;size=15;whiteSpace=wrap;html=1;boundedLbl=1;rounded=0;labelBackgroundColor=none;fillColor=#23A2D9;fontSize=12;fontColor=#ffffff;align=center;strokeColor=#0E7DAD;metaEdit=1;points=[[0.5,0,0],[1,0.25,0],[1,0.5,0],[1,0.75,0],[0.5,1,0],[0,0.75,0],[0,0.5,0],[0,0.25,0]];resizable=0;" vertex="1" parent="1">
            <mxGeometry x="-220" y="900" width="240" height="120" as="geometry" />
          </mxCell>
        </object>
        <object placeholders="1" c4Name="AD" c4Type="Software System" c4Description="Microsoft Actice Directory" label="&lt;font style=&quot;font-size: 16px&quot;&gt;&lt;b&gt;%c4Name%&lt;/b&gt;&lt;/font&gt;&lt;div&gt;[%c4Type%]&lt;/div&gt;&lt;br&gt;&lt;div&gt;&lt;font style=&quot;font-size: 11px&quot;&gt;&lt;font color=&quot;#cccccc&quot;&gt;%c4Description%&lt;/font&gt;&lt;/div&gt;" id="4zln1qysueoRD7-S1MVT-18">
          <mxCell style="rounded=1;whiteSpace=wrap;html=1;labelBackgroundColor=none;fillColor=#1061B0;fontColor=#ffffff;align=center;arcSize=10;strokeColor=#0D5091;metaEdit=1;resizable=0;points=[[0.25,0,0],[0.5,0,0],[0.75,0,0],[1,0.25,0],[1,0.5,0],[1,0.75,0],[0.75,1,0],[0.5,1,0],[0.25,1,0],[0,0.75,0],[0,0.5,0],[0,0.25,0]];" vertex="1" parent="1">
            <mxGeometry x="100" y="170" width="240" height="120" as="geometry" />
          </mxCell>
        </object>
        <mxCell id="4zln1qysueoRD7-S1MVT-24" style="edgeStyle=orthogonalEdgeStyle;rounded=0;orthogonalLoop=1;jettySize=auto;html=1;exitX=0.5;exitY=0;exitDx=0;exitDy=0;exitPerimeter=0;entryX=1;entryY=0.5;entryDx=0;entryDy=0;entryPerimeter=0;" edge="1" parent="1" source="-rCLtENTZyw--RfLadG2-9" target="4zln1qysueoRD7-S1MVT-23">
          <mxGeometry relative="1" as="geometry">
            <Array as="points">
              <mxPoint x="580" y="1080" />
            </Array>
          </mxGeometry>
        </mxCell>
        <mxCell id="4zln1qysueoRD7-S1MVT-48" value="Запись на прием" style="edgeLabel;html=1;align=center;verticalAlign=middle;resizable=0;points=[];" vertex="1" connectable="0" parent="4zln1qysueoRD7-S1MVT-24">
          <mxGeometry x="-0.4842" y="-2" relative="1" as="geometry">
            <mxPoint as="offset" />
          </mxGeometry>
        </mxCell>
        <mxCell id="4zln1qysueoRD7-S1MVT-25" style="edgeStyle=orthogonalEdgeStyle;rounded=0;orthogonalLoop=1;jettySize=auto;html=1;" edge="1" parent="1" source="4zln1qysueoRD7-S1MVT-22" target="4zln1qysueoRD7-S1MVT-15">
          <mxGeometry relative="1" as="geometry" />
        </mxCell>
        <mxCell id="4zln1qysueoRD7-S1MVT-61" value="[HTTPS, LAN]" style="edgeLabel;html=1;align=center;verticalAlign=middle;resizable=0;points=[];" vertex="1" connectable="0" parent="4zln1qysueoRD7-S1MVT-25">
          <mxGeometry x="-0.0452" y="3" relative="1" as="geometry">
            <mxPoint as="offset" />
          </mxGeometry>
        </mxCell>
        <object placeholders="1" c4Name="API Gateway" c4Type="Container" c4Technology="Apisix" c4Description="Предоставляет api для фронта и будущем мобильного приложения" label="&lt;font style=&quot;font-size: 16px&quot;&gt;&lt;b&gt;%c4Name%&lt;/b&gt;&lt;/font&gt;&lt;div&gt;[%c4Type%: %c4Technology%]&lt;/div&gt;&lt;br&gt;&lt;div&gt;&lt;font style=&quot;font-size: 11px&quot;&gt;&lt;font color=&quot;#E6E6E6&quot;&gt;%c4Description%&lt;/font&gt;&lt;/div&gt;" id="4zln1qysueoRD7-S1MVT-22">
          <mxCell style="rounded=1;whiteSpace=wrap;html=1;fontSize=11;labelBackgroundColor=none;fillColor=#23A2D9;fontColor=#ffffff;align=center;arcSize=10;strokeColor=#0E7DAD;metaEdit=1;resizable=0;points=[[0.25,0,0],[0.5,0,0],[0.75,0,0],[1,0.25,0],[1,0.5,0],[1,0.75,0],[0.75,1,0],[0.5,1,0],[0.25,1,0],[0,0.75,0],[0,0.5,0],[0,0.25,0]];" vertex="1" parent="1">
            <mxGeometry x="120" y="710" width="240" height="120" as="geometry" />
          </mxCell>
        </object>
        <object placeholders="1" c4Name="PublicPortal-front" c4Type="Container" c4Technology="nginx, React" c4Description="" label="&lt;font style=&quot;font-size: 16px&quot;&gt;&lt;b&gt;%c4Name%&lt;/b&gt;&lt;/font&gt;&lt;div&gt;[%c4Type%: %c4Technology%]&lt;/div&gt;&lt;br&gt;&lt;div&gt;&lt;font style=&quot;font-size: 11px&quot;&gt;&lt;font color=&quot;#E6E6E6&quot;&gt;%c4Description%&lt;/font&gt;&lt;/div&gt;" id="4zln1qysueoRD7-S1MVT-23">
          <mxCell style="rounded=1;whiteSpace=wrap;html=1;fontSize=11;labelBackgroundColor=none;fillColor=#23A2D9;fontColor=#ffffff;align=center;arcSize=10;strokeColor=#0E7DAD;metaEdit=1;resizable=0;points=[[0.25,0,0],[0.5,0,0],[0.75,0,0],[1,0.25,0],[1,0.5,0],[1,0.75,0],[0.75,1,0],[0.5,1,0],[0.25,1,0],[0,0.75,0],[0,0.5,0],[0,0.25,0]];" vertex="1" parent="1">
            <mxGeometry x="120" y="1020" width="240" height="120" as="geometry" />
          </mxCell>
        </object>
        <mxCell id="4zln1qysueoRD7-S1MVT-26" style="edgeStyle=orthogonalEdgeStyle;rounded=0;orthogonalLoop=1;jettySize=auto;html=1;" edge="1" parent="1" source="4zln1qysueoRD7-S1MVT-15" target="4zln1qysueoRD7-S1MVT-8">
          <mxGeometry relative="1" as="geometry" />
        </mxCell>
        <mxCell id="4zln1qysueoRD7-S1MVT-66" value="Проверка прав&lt;br&gt;[HTTPS, LAN]" style="edgeLabel;html=1;align=center;verticalAlign=middle;resizable=0;points=[];" vertex="1" connectable="0" parent="4zln1qysueoRD7-S1MVT-26">
          <mxGeometry x="-0.0077" y="-1" relative="1" as="geometry">
            <mxPoint as="offset" />
          </mxGeometry>
        </mxCell>
        <mxCell id="4zln1qysueoRD7-S1MVT-27" style="edgeStyle=orthogonalEdgeStyle;rounded=0;orthogonalLoop=1;jettySize=auto;html=1;exitX=0.5;exitY=0;exitDx=0;exitDy=0;exitPerimeter=0;entryX=1;entryY=0.5;entryDx=0;entryDy=0;entryPerimeter=0;" edge="1" parent="1" source="4zln1qysueoRD7-S1MVT-22" target="4zln1qysueoRD7-S1MVT-8">
          <mxGeometry relative="1" as="geometry" />
        </mxCell>
        <mxCell id="4zln1qysueoRD7-S1MVT-60" value="Аутантификация&lt;br&gt;[HTTPS, LAN]" style="edgeLabel;html=1;align=center;verticalAlign=middle;resizable=0;points=[];" vertex="1" connectable="0" parent="4zln1qysueoRD7-S1MVT-27">
          <mxGeometry x="-0.3552" y="-2" relative="1" as="geometry">
            <mxPoint as="offset" />
          </mxGeometry>
        </mxCell>
        <mxCell id="4zln1qysueoRD7-S1MVT-28" style="edgeStyle=orthogonalEdgeStyle;rounded=0;orthogonalLoop=1;jettySize=auto;html=1;entryX=0.5;entryY=1;entryDx=0;entryDy=0;entryPerimeter=0;" edge="1" parent="1" source="4zln1qysueoRD7-S1MVT-23" target="4zln1qysueoRD7-S1MVT-22">
          <mxGeometry relative="1" as="geometry" />
        </mxCell>
        <mxCell id="4zln1qysueoRD7-S1MVT-62" value="[HTTPS, Internet]" style="edgeLabel;html=1;align=center;verticalAlign=middle;resizable=0;points=[];" vertex="1" connectable="0" parent="4zln1qysueoRD7-S1MVT-28">
          <mxGeometry x="0.0366" y="-1" relative="1" as="geometry">
            <mxPoint as="offset" />
          </mxGeometry>
        </mxCell>
        <mxCell id="4zln1qysueoRD7-S1MVT-29" value="&lt;h1 style=&quot;margin-top: 0px;&quot;&gt;EMR&lt;/h1&gt;&lt;p&gt;В связи с тем что для достаточно маленькой компании (менее 200 чел после расширенеия) разработка собственной МИС может стать неподъемной задачей. При этом на MVP отведен очень маленький (с учетом отсутствия команды) срок в 8 недель.&lt;br&gt;Для сокращения трудозатрат, в качестве ядра новой системы предпологается использовать open source EMR решение OpenMRS(стек Java, React, MySQL), которое необходимо доработать под требования компании.&amp;nbsp;&lt;/p&gt;&lt;p&gt;EMR должна обеспечивать ведение карт пациентов (включая добавление файлов в карты). Предоставлять возможность управления рассписанием врачей. Формировать направлений на анализы и сохранение их результатов. В&amp;nbsp;&lt;span style=&quot;background-color: transparent; color: light-dark(rgb(51, 51, 51), rgb(193, 193, 193));&quot;&gt;OpenMRS реализовано большая часть требуемых функций.&lt;/span&gt;&lt;/p&gt;&lt;p&gt;&lt;span style=&quot;background-color: transparent; color: light-dark(rgb(51, 51, 51), rgb(193, 193, 193));&quot;&gt;В дальнейшем EMR должна стать основой для решения&amp;nbsp;&lt;/span&gt;&lt;span style=&quot;background-color: transparent; color: light-dark(rgb(51, 51, 51), rgb(193, 193, 193));&quot;&gt;всех поставленных задач.&lt;/span&gt;&lt;/p&gt;&lt;p&gt;&lt;span style=&quot;background-color: transparent; color: light-dark(rgb(51, 51, 51), rgb(193, 193, 193));&quot;&gt;Для миграции необходимо будет загрузить реестр клиентов, реестр анализов в EMR-DB, загрузить реестр всех сотрудников, автоматически создать карты для всех зарегестрированных клиентов, прикрипить к картам ссылки на S3 для всех файлов клиентов.&lt;/span&gt;&lt;/p&gt;&lt;p&gt;EMR должна обеспечивать контроль доступа к данным на основании ролей получаемых от IAM в процессе аутантификации. При получении файлов от S3 необходимо проверять теги, а при загрузки новых файлов теги добавлять.&lt;/p&gt;&lt;p&gt;&lt;span style=&quot;background-color: transparent; color: light-dark(rgb(51, 51, 51), rgb(193, 193, 193));&quot;&gt;EMR может быть в дальнейшем горизонтально отмасштабировано, при этом стоит отделить инстенсы EMR для сотрудников от инстансов для публичных пользоватиелей.&lt;/span&gt;&lt;/p&gt;&lt;p&gt;&lt;br&gt;&lt;/p&gt;" style="text;html=1;whiteSpace=wrap;overflow=hidden;rounded=0;fillColor=#f5f5f5;fontColor=#333333;strokeColor=#666666;" vertex="1" parent="1">
          <mxGeometry x="-720" y="-450" width="410" height="503" as="geometry" />
        </mxCell>
        <object placeholders="1" c4Name="EMR-front" c4Type="Container" c4Technology="nginx, React" c4Description="" label="&lt;font style=&quot;font-size: 16px&quot;&gt;&lt;b&gt;%c4Name%&lt;/b&gt;&lt;/font&gt;&lt;div&gt;[%c4Type%: %c4Technology%]&lt;/div&gt;&lt;br&gt;&lt;div&gt;&lt;font style=&quot;font-size: 11px&quot;&gt;&lt;font color=&quot;#E6E6E6&quot;&gt;%c4Description%&lt;/font&gt;&lt;/div&gt;" id="4zln1qysueoRD7-S1MVT-30">
          <mxCell style="rounded=1;whiteSpace=wrap;html=1;fontSize=11;labelBackgroundColor=none;fillColor=#23A2D9;fontColor=#ffffff;align=center;arcSize=10;strokeColor=#0E7DAD;metaEdit=1;resizable=0;points=[[0.25,0,0],[0.5,0,0],[0.75,0,0],[1,0.25,0],[1,0.5,0],[1,0.75,0],[0.75,1,0],[0.5,1,0],[0.25,1,0],[0,0.75,0],[0,0.5,0],[0,0.25,0]];" vertex="1" parent="1">
            <mxGeometry x="-770" y="340" width="240" height="120" as="geometry" />
          </mxCell>
        </object>
        <mxCell id="4zln1qysueoRD7-S1MVT-31" style="edgeStyle=orthogonalEdgeStyle;rounded=0;orthogonalLoop=1;jettySize=auto;html=1;exitX=1;exitY=0.5;exitDx=0;exitDy=0;exitPerimeter=0;entryX=0.5;entryY=0;entryDx=0;entryDy=0;entryPerimeter=0;" edge="1" parent="1" source="4zln1qysueoRD7-S1MVT-30" target="4zln1qysueoRD7-S1MVT-6">
          <mxGeometry relative="1" as="geometry" />
        </mxCell>
        <mxCell id="4zln1qysueoRD7-S1MVT-55" value="[HTTPS, LAN]" style="edgeLabel;html=1;align=center;verticalAlign=middle;resizable=0;points=[];" vertex="1" connectable="0" parent="4zln1qysueoRD7-S1MVT-31">
          <mxGeometry x="-0.3968" y="-1" relative="1" as="geometry">
            <mxPoint as="offset" />
          </mxGeometry>
        </mxCell>
        <mxCell id="4zln1qysueoRD7-S1MVT-33" value="&lt;h1 style=&quot;margin-top: 0px;&quot;&gt;Инфраструктура&lt;/h1&gt;&lt;p&gt;&lt;span style=&quot;background-color: transparent; color: light-dark(rgb(51, 51, 51), rgb(193, 193, 193));&quot;&gt;Компания собирается открывать новые площадки, нахождения ключевого оборудования в центральном офисе неприемлемо, т.к. остальные площадки могут работать независимо от доступности основной.&lt;/span&gt;&lt;/p&gt;&lt;p&gt;Необходимо арендовать ресурсы в крупном ДЦ, в зоне аттестованной под выполнение требований ФЗ-152 (например Селектел)&amp;nbsp;&lt;/p&gt;&lt;p&gt;Для уменьшения трудозатрат требуется арендовать:&lt;/p&gt;&lt;p&gt;- Отказоустойчивый кластер K8s as Service&lt;/p&gt;&lt;p&gt;- S3 as Service&lt;/p&gt;&lt;p&gt;- ВМ для резервных копий&lt;/p&gt;&lt;p&gt;Все офисы должны быть подключены к сети через двух независимых провайдеров. Резервирование предпочтительно реализовать с помощью SD-WAN (иначе динамическая маршрутизация + sla мониторинг)&lt;/p&gt;&lt;p&gt;Подключение к публичному интернету должно быть защищено NGFW с регулярно обновляемыми IPS сигнатурами.&lt;/p&gt;&lt;p&gt;Офисы должны быть подключены к ДЦ с помощью IPSec.&lt;/p&gt;&lt;p&gt;В перспективе для всех сотрудников офисов можно организовать централизованый выход в интернет, а так же внедрить DLP систему&lt;/p&gt;&lt;p&gt;Необходимо развернуть Антивирус Касперского на всех машинах с централизованным управлением ими с помощью KSC.&lt;/p&gt;&lt;p&gt;Доступ к физ. серверу в HQ через СКУД.&lt;/p&gt;&lt;p&gt;&lt;span style=&quot;background-color: transparent; color: light-dark(rgb(51, 51, 51), rgb(193, 193, 193));&quot;&gt;API Gateway должен быть защищен WAF (нужно отдельно арендавать)&lt;/span&gt;&lt;/p&gt;&lt;p&gt;Должна быть проработана схема оперативного подключения, в случае необходимости, AntiDDoS сервиса.&lt;/p&gt;&lt;p&gt;Должны обеспечиваться регулярные бекапы данных, кода, конфигураций, документации. Бекапы должны храниться за пределами инфраструктуры, в зашифрованном виде. Достаточность и корректность бекапов должно регулярно проверяться.&lt;/p&gt;&lt;p&gt;Необходим плейбук полного восстановления&amp;nbsp; инфраструктуры из бекапа в случае ее утраты (сбой ПО/оборудования, атака)&lt;/p&gt;&lt;p&gt;Необходим плейбук на случай обнаружения вторжения в систему (кто и чем будет проводить расследование)&lt;/p&gt;&lt;p&gt;Плейбуки не должны быть внутри инфраструктуры&lt;/p&gt;&lt;p&gt;&lt;br&gt;&lt;/p&gt;&lt;p&gt;&lt;br&gt;&lt;/p&gt;" style="text;html=1;whiteSpace=wrap;overflow=hidden;rounded=0;fillColor=#f5f5f5;fontColor=#333333;strokeColor=#666666;" vertex="1" parent="1">
          <mxGeometry x="-1370" y="-670" width="540" height="730" as="geometry" />
        </mxCell>
        <object placeholders="1" c4Name="K8s" c4Type="ContainerScopeBoundary" c4Application="Container" label="&lt;font style=&quot;font-size: 16px&quot;&gt;&lt;b&gt;&lt;div style=&quot;text-align: left&quot;&gt;%c4Name%&lt;/div&gt;&lt;/b&gt;&lt;/font&gt;&lt;div style=&quot;text-align: left&quot;&gt;[%c4Application%]&lt;/div&gt;" id="4zln1qysueoRD7-S1MVT-38">
          <mxCell style="rounded=1;fontSize=11;whiteSpace=wrap;html=1;dashed=1;arcSize=20;fillColor=none;strokeColor=#666666;fontColor=#333333;labelBackgroundColor=none;align=left;verticalAlign=bottom;labelBorderColor=none;spacingTop=0;spacing=10;dashPattern=8 4;metaEdit=1;rotatable=0;perimeter=rectanglePerimeter;noLabel=0;labelPadding=0;allowArrows=0;connectable=0;expand=0;recursiveResize=0;editable=1;pointerEvents=0;absoluteArcSize=1;points=[[0.25,0,0],[0.5,0,0],[0.75,0,0],[1,0.25,0],[1,0.5,0],[1,0.75,0],[0.75,1,0],[0.5,1,0],[0.25,1,0],[0,0.75,0],[0,0.5,0],[0,0.25,0]];" vertex="1" parent="1">
            <mxGeometry x="-800" y="120" width="1180" height="1090" as="geometry" />
          </mxCell>
        </object>
        <mxCell id="4zln1qysueoRD7-S1MVT-39" value="MVP" style="text;html=1;align=center;verticalAlign=middle;whiteSpace=wrap;rounded=0;fontSize=30;" vertex="1" parent="1">
          <mxGeometry x="-1380" y="-810" width="60" height="30" as="geometry" />
        </mxCell>
        <mxCell id="4zln1qysueoRD7-S1MVT-40" value="&lt;span style=&quot;color: rgba(0, 0, 0, 0.85); font-family: &amp;quot;YS Text&amp;quot;, sans-serif; font-size: 18px; white-space-collapse: preserve; background-color: rgb(255, 255, 255);&quot;&gt;клиент сможет самостоятельно записаться на приём к специалисту через портал компании. При этом команда ресепшена будет видеть эту запись: сотрудники смогут отследить запись в системе и за день до приёма напомнить про него и пациенту, и специалисту. Необходимо определить категории данных пациентов и разнести их по различным доменам. Для каждой категории данных определить роли (RBAC) или атрибуты (ABAC), на основании которых сотрудникам будет разрешён доступ к данным.&lt;/span&gt;" style="text;html=1;align=left;verticalAlign=middle;whiteSpace=wrap;rounded=0;" vertex="1" parent="1">
          <mxGeometry x="-1260" y="-790" width="1270" height="30" as="geometry" />
        </mxCell>
        <object placeholders="1" c4Name="Monitoring" c4Type="Container" c4Technology="Prometheus, Loki" c4Description="Мониторинг и логирование всех элементов" label="&lt;font style=&quot;font-size: 16px&quot;&gt;&lt;b&gt;%c4Name%&lt;/b&gt;&lt;/font&gt;&lt;div&gt;[%c4Type%: %c4Technology%]&lt;/div&gt;&lt;br&gt;&lt;div&gt;&lt;font style=&quot;font-size: 11px&quot;&gt;&lt;font color=&quot;#E6E6E6&quot;&gt;%c4Description%&lt;/font&gt;&lt;/div&gt;" id="4zln1qysueoRD7-S1MVT-42">
          <mxCell style="rounded=1;whiteSpace=wrap;html=1;fontSize=11;labelBackgroundColor=none;fillColor=#23A2D9;fontColor=#ffffff;align=center;arcSize=10;strokeColor=#0E7DAD;metaEdit=1;resizable=0;points=[[0.25,0,0],[0.5,0,0],[0.75,0,0],[1,0.25,0],[1,0.5,0],[1,0.75,0],[0.75,1,0],[0.5,1,0],[0.25,1,0],[0,0.75,0],[0,0.5,0],[0,0.25,0]];" vertex="1" parent="1">
            <mxGeometry x="-710" y="1080" width="240" height="120" as="geometry" />
          </mxCell>
        </object>
        <mxCell id="4zln1qysueoRD7-S1MVT-43" value="&lt;h1 style=&quot;margin-top: 0px;&quot;&gt;Команда&lt;/h1&gt;&lt;p&gt;Java разработчик&lt;/p&gt;&lt;p&gt;React разработчик&lt;/p&gt;&lt;p&gt;Аналитик&lt;/p&gt;&lt;p&gt;UI дизайнер (аутсорс)&lt;/p&gt;&lt;p&gt;2 Тестировщика&lt;/p&gt;&lt;p&gt;Devops&lt;/p&gt;&lt;p&gt;Пентестер (аутсорс)&lt;/p&gt;" style="text;html=1;whiteSpace=wrap;overflow=hidden;rounded=0;fillColor=#f5f5f5;fontColor=#333333;strokeColor=#666666;" vertex="1" parent="1">
          <mxGeometry x="233" y="-450" width="180" height="240" as="geometry" />
        </mxCell>
        <object placeholders="1" c4Name="ДЦ" c4Type="ContainerScopeBoundary" c4Application="Container" label="&lt;font style=&quot;font-size: 16px&quot;&gt;&lt;b&gt;&lt;div style=&quot;text-align: left&quot;&gt;%c4Name%&lt;/div&gt;&lt;/b&gt;&lt;/font&gt;&lt;div style=&quot;text-align: left&quot;&gt;[%c4Application%]&lt;/div&gt;" id="4zln1qysueoRD7-S1MVT-46">
          <mxCell style="rounded=1;fontSize=11;whiteSpace=wrap;html=1;dashed=1;arcSize=20;fillColor=none;strokeColor=#666666;fontColor=#333333;labelBackgroundColor=none;align=left;verticalAlign=bottom;labelBorderColor=none;spacingTop=0;spacing=10;dashPattern=8 4;metaEdit=1;rotatable=0;perimeter=rectanglePerimeter;noLabel=0;labelPadding=0;allowArrows=0;connectable=0;expand=0;recursiveResize=0;editable=1;pointerEvents=0;absoluteArcSize=1;points=[[0.25,0,0],[0.5,0,0],[0.75,0,0],[1,0.25,0],[1,0.5,0],[1,0.75,0],[0.75,1,0],[0.5,1,0],[0.25,1,0],[0,0.75,0],[0,0.5,0],[0,0.25,0]];" vertex="1" parent="1">
            <mxGeometry x="-1120" y="100" width="1520" height="1210" as="geometry" />
          </mxCell>
        </object>
        <object placeholders="1" c4Name="HQ" c4Type="ContainerScopeBoundary" c4Application="Container" label="&lt;font style=&quot;font-size: 16px&quot;&gt;&lt;b&gt;&lt;div style=&quot;text-align: left&quot;&gt;%c4Name%&lt;/div&gt;&lt;/b&gt;&lt;/font&gt;&lt;div style=&quot;text-align: left&quot;&gt;[%c4Application%]&lt;/div&gt;" id="4zln1qysueoRD7-S1MVT-47">
          <mxCell style="rounded=1;fontSize=11;whiteSpace=wrap;html=1;dashed=1;arcSize=20;fillColor=none;strokeColor=#666666;fontColor=#333333;labelBackgroundColor=none;align=left;verticalAlign=bottom;labelBorderColor=none;spacingTop=0;spacing=10;dashPattern=8 4;metaEdit=1;rotatable=0;perimeter=rectanglePerimeter;noLabel=0;labelPadding=0;allowArrows=0;connectable=0;expand=0;recursiveResize=0;editable=1;pointerEvents=0;absoluteArcSize=1;points=[[0.25,0,0],[0.5,0,0],[0.75,0,0],[1,0.25,0],[1,0.5,0],[1,0.75,0],[0.75,1,0],[0.5,1,0],[0.25,1,0],[0,0.75,0],[0,0.5,0],[0,0.25,0]];" vertex="1" parent="1">
            <mxGeometry x="-910" y="1330" width="1050" height="720" as="geometry" />
          </mxCell>
        </object>
        <object placeholders="1" c4Name="Бекап VM" c4Type="Container" c4Technology="Linux, scp, rsync" c4Description="" label="&lt;font style=&quot;font-size: 16px&quot;&gt;&lt;b&gt;%c4Name%&lt;/b&gt;&lt;/font&gt;&lt;div&gt;[%c4Type%: %c4Technology%]&lt;/div&gt;&lt;br&gt;&lt;div&gt;&lt;font style=&quot;font-size: 11px&quot;&gt;&lt;font color=&quot;#E6E6E6&quot;&gt;%c4Description%&lt;/font&gt;&lt;/div&gt;" id="4zln1qysueoRD7-S1MVT-49">
          <mxCell style="rounded=1;whiteSpace=wrap;html=1;fontSize=11;labelBackgroundColor=none;fillColor=#23A2D9;fontColor=#ffffff;align=center;arcSize=10;strokeColor=#0E7DAD;metaEdit=1;resizable=0;points=[[0.25,0,0],[0.5,0,0],[0.75,0,0],[1,0.25,0],[1,0.5,0],[1,0.75,0],[0.75,1,0],[0.5,1,0],[0.25,1,0],[0,0.75,0],[0,0.5,0],[0,0.25,0]];" vertex="1" parent="1">
            <mxGeometry x="-1090" y="1090" width="240" height="120" as="geometry" />
          </mxCell>
        </object>
        <object placeholders="1" c4Name="Analysts" c4Type="Person" c4Description="Бизнес-аналитик" label="&lt;font style=&quot;font-size: 16px&quot;&gt;&lt;b&gt;%c4Name%&lt;/b&gt;&lt;/font&gt;&lt;div&gt;[%c4Type%]&lt;/div&gt;&lt;br&gt;&lt;div&gt;&lt;font style=&quot;font-size: 11px&quot;&gt;&lt;font color=&quot;#cccccc&quot;&gt;%c4Description%&lt;/font&gt;&lt;/div&gt;" id="4zln1qysueoRD7-S1MVT-50">
          <mxCell style="html=1;fontSize=11;dashed=0;whiteSpace=wrap;fillColor=#083F75;strokeColor=#06315C;fontColor=#ffffff;shape=mxgraph.c4.person2;align=center;metaEdit=1;points=[[0.5,0,0],[1,0.5,0],[1,0.75,0],[0.75,1,0],[0.5,1,0],[0.25,1,0],[0,0.75,0],[0,0.5,0]];resizable=0;" vertex="1" parent="1">
            <mxGeometry x="-1350" y="680" width="200" height="180" as="geometry" />
          </mxCell>
        </object>
        <mxCell id="4zln1qysueoRD7-S1MVT-51" style="edgeStyle=orthogonalEdgeStyle;rounded=0;orthogonalLoop=1;jettySize=auto;html=1;exitX=1;exitY=0.75;exitDx=0;exitDy=0;exitPerimeter=0;entryX=0.25;entryY=1;entryDx=0;entryDy=0;entryPerimeter=0;" edge="1" parent="1" source="4zln1qysueoRD7-S1MVT-50" target="4zln1qysueoRD7-S1MVT-30">
          <mxGeometry relative="1" as="geometry">
            <Array as="points">
              <mxPoint x="-980" y="815" />
              <mxPoint x="-980" y="610" />
              <mxPoint x="-710" y="610" />
            </Array>
          </mxGeometry>
        </mxCell>
        <mxCell id="4zln1qysueoRD7-S1MVT-52" value="Составление отчетов&lt;div&gt;&lt;br&gt;&lt;/div&gt;" style="edgeLabel;html=1;align=center;verticalAlign=middle;resizable=0;points=[];" vertex="1" connectable="0" parent="4zln1qysueoRD7-S1MVT-51">
          <mxGeometry x="-0.4871" y="-3" relative="1" as="geometry">
            <mxPoint as="offset" />
          </mxGeometry>
        </mxCell>
        <mxCell id="4zln1qysueoRD7-S1MVT-53" style="edgeStyle=orthogonalEdgeStyle;rounded=0;orthogonalLoop=1;jettySize=auto;html=1;exitX=1;exitY=0.25;exitDx=0;exitDy=0;exitPerimeter=0;entryX=0.28;entryY=0.004;entryDx=0;entryDy=0;entryPerimeter=0;" edge="1" parent="1" source="4zln1qysueoRD7-S1MVT-30" target="4zln1qysueoRD7-S1MVT-8">
          <mxGeometry relative="1" as="geometry" />
        </mxCell>
        <mxCell id="4zln1qysueoRD7-S1MVT-54" value="Аутантификация&lt;br&gt;[HTTPS, LAN]" style="edgeLabel;html=1;align=center;verticalAlign=middle;resizable=0;points=[];" vertex="1" connectable="0" parent="4zln1qysueoRD7-S1MVT-53">
          <mxGeometry x="-0.1914" y="3" relative="1" as="geometry">
            <mxPoint as="offset" />
          </mxGeometry>
        </mxCell>
        <mxCell id="4zln1qysueoRD7-S1MVT-64" value="&lt;h1 style=&quot;margin-top: 0px;&quot;&gt;Хранение данных&lt;/h1&gt;&lt;div&gt;Данные клиентов хранятся EMR-DB и в S3.&lt;/div&gt;&lt;div&gt;&lt;span style=&quot;background-color: transparent; color: light-dark(rgb(51, 51, 51), rgb(193, 193, 193));&quot;&gt;&lt;br&gt;&lt;/span&gt;&lt;/div&gt;&lt;div&gt;&lt;span style=&quot;background-color: transparent; color: light-dark(rgb(51, 51, 51), rgb(193, 193, 193));&quot;&gt;Все накопленные файлы клиентов&amp;nbsp;&lt;/span&gt;&lt;span style=&quot;background-color: transparent; color: light-dark(rgb(51, 51, 51), rgb(193, 193, 193));&quot;&gt;из SMB шары&lt;/span&gt;&lt;span style=&quot;background-color: transparent; color: light-dark(rgb(51, 51, 51), rgb(193, 193, 193));&quot;&gt;&amp;nbsp;&lt;/span&gt;&lt;span style=&quot;background-color: transparent; color: light-dark(rgb(51, 51, 51), rgb(193, 193, 193));&quot;&gt;необходимо загрузить в S3 (при загрузки необходимо установить теги объектов определяющее уровень защиты данных)&lt;/span&gt;&lt;/div&gt;&lt;div&gt;&lt;span style=&quot;background-color: transparent; color: light-dark(rgb(51, 51, 51), rgb(193, 193, 193));&quot;&gt;&lt;br&gt;&lt;/span&gt;&lt;/div&gt;&lt;div&gt;&lt;span style=&quot;background-color: transparent; color: light-dark(rgb(51, 51, 51), rgb(193, 193, 193));&quot;&gt;В S3 хранятся все мигрированные файлы.&lt;/span&gt;&lt;/div&gt;&lt;div&gt;&lt;span style=&quot;background-color: transparent; color: light-dark(rgb(51, 51, 51), rgb(193, 193, 193));&quot;&gt;Новые данные касаемые записей к врачам&amp;nbsp; и данные по взятым анализам хранятся в&amp;nbsp;&lt;/span&gt;EMR-DB&lt;span style=&quot;background-color: transparent; color: light-dark(rgb(51, 51, 51), rgb(193, 193, 193));&quot;&gt;.&lt;/span&gt;&lt;/div&gt;&lt;div&gt;Результаты приема, результаты анализова и прочие файлы ERM сохраняет в S3.&lt;/div&gt;&lt;div&gt;&lt;span style=&quot;background-color: transparent; color: light-dark(rgb(51, 51, 51), rgb(193, 193, 193));&quot;&gt;&lt;br&gt;&lt;/span&gt;&lt;/div&gt;&lt;div&gt;&lt;span style=&quot;background-color: transparent; color: light-dark(rgb(51, 51, 51), rgb(193, 193, 193));&quot;&gt;Файловые системы&amp;nbsp;&lt;/span&gt;&lt;span style=&quot;background-color: transparent; color: light-dark(rgb(51, 51, 51), rgb(193, 193, 193));&quot;&gt;EMR-DB и&amp;nbsp;&lt;/span&gt;&lt;span style=&quot;background-color: transparent; color: light-dark(rgb(51, 51, 51), rgb(193, 193, 193));&quot;&gt;S3 должны быть зашифрованы.&lt;/span&gt;&lt;/div&gt;&lt;div&gt;&lt;p&gt;В случаи заверщения срока действия договора с клиентом на предоставления услуг, в течение 10 дней все файлы и&amp;nbsp;&lt;span style=&quot;background-color: transparent; color: light-dark(rgb(51, 51, 51), rgb(193, 193, 193));&quot;&gt;записи в EMR-DB&lt;/span&gt;&lt;span style=&quot;background-color: transparent; color: light-dark(rgb(51, 51, 51), rgb(193, 193, 193));&quot;&gt;&amp;nbsp;&lt;/span&gt;&lt;span style=&quot;background-color: transparent; color: light-dark(rgb(51, 51, 51), rgb(193, 193, 193));&quot;&gt;связаные с клиентом должны быть удалены.&amp;nbsp;&lt;/span&gt;&lt;/p&gt;&lt;p&gt;&lt;span style=&quot;background-color: transparent; color: light-dark(rgb(51, 51, 51), rgb(193, 193, 193));&quot;&gt;&lt;br&gt;&lt;/span&gt;&lt;/p&gt;&lt;/div&gt;" style="text;html=1;whiteSpace=wrap;overflow=hidden;rounded=0;fillColor=#f5f5f5;fontColor=#333333;strokeColor=#666666;" vertex="1" parent="1">
          <mxGeometry x="-180" y="-450" width="300" height="360" as="geometry" />
        </mxCell>
        <mxCell id="4zln1qysueoRD7-S1MVT-67" value="Разделение прав осуществляется встроенными средствами EMR" style="text;html=1;align=center;verticalAlign=middle;whiteSpace=wrap;rounded=0;fillColor=#d5e8d4;strokeColor=#82b366;" vertex="1" parent="1">
          <mxGeometry x="-760" y="430" width="220" height="30" as="geometry" />
        </mxCell>
        <object placeholders="1" c4Name="Cashier" c4Type="Person" c4Description="Кассир" label="&lt;font style=&quot;font-size: 16px&quot;&gt;&lt;b&gt;%c4Name%&lt;/b&gt;&lt;/font&gt;&lt;div&gt;[%c4Type%]&lt;/div&gt;&lt;br&gt;&lt;div&gt;&lt;font style=&quot;font-size: 11px&quot;&gt;&lt;font color=&quot;#cccccc&quot;&gt;%c4Description%&lt;/font&gt;&lt;/div&gt;" id="4zln1qysueoRD7-S1MVT-108">
          <mxCell style="html=1;fontSize=11;dashed=0;whiteSpace=wrap;fillColor=#083F75;strokeColor=#06315C;fontColor=#ffffff;shape=mxgraph.c4.person2;align=center;metaEdit=1;points=[[0.5,0,0],[1,0.5,0],[1,0.75,0],[0.75,1,0],[0.5,1,0],[0.25,1,0],[0,0.75,0],[0,0.5,0]];resizable=0;" vertex="1" parent="1">
            <mxGeometry x="-1360" y="890" width="200" height="180" as="geometry" />
          </mxCell>
        </object>
        <mxCell id="4zln1qysueoRD7-S1MVT-109" style="edgeStyle=orthogonalEdgeStyle;rounded=0;orthogonalLoop=1;jettySize=auto;html=1;exitX=1;exitY=0.75;exitDx=0;exitDy=0;exitPerimeter=0;entryX=0.5;entryY=1;entryDx=0;entryDy=0;entryPerimeter=0;" edge="1" parent="1" source="4zln1qysueoRD7-S1MVT-108" target="4zln1qysueoRD7-S1MVT-30">
          <mxGeometry relative="1" as="geometry">
            <Array as="points">
              <mxPoint x="-880" y="1025" />
              <mxPoint x="-880" y="660" />
              <mxPoint x="-650" y="660" />
            </Array>
          </mxGeometry>
        </mxCell>
        <mxCell id="4zln1qysueoRD7-S1MVT-110" value="Чтение списка&lt;br&gt;оказанных услуг&lt;br&gt;(приемы, анализы)" style="edgeLabel;html=1;align=center;verticalAlign=middle;resizable=0;points=[];" vertex="1" connectable="0" parent="4zln1qysueoRD7-S1MVT-109">
          <mxGeometry x="-0.6726" y="2" relative="1" as="geometry">
            <mxPoint as="offset" />
          </mxGeometry>
        </mxCell>
        <mxCell id="4zln1qysueoRD7-S1MVT-112" style="edgeStyle=orthogonalEdgeStyle;rounded=0;orthogonalLoop=1;jettySize=auto;html=1;exitX=0.5;exitY=1;exitDx=0;exitDy=0;exitPerimeter=0;entryX=0;entryY=0.25;entryDx=0;entryDy=0;entryPerimeter=0;" edge="1" parent="1" source="4zln1qysueoRD7-S1MVT-108" target="-rCLtENTZyw--RfLadG2-20">
          <mxGeometry relative="1" as="geometry">
            <Array as="points">
              <mxPoint x="-1260" y="1350" />
              <mxPoint x="-840" y="1350" />
              <mxPoint x="-840" y="1453" />
            </Array>
          </mxGeometry>
        </mxCell>
        <mxCell id="4zln1qysueoRD7-S1MVT-113" value="Проведение оплаты" style="edgeLabel;html=1;align=center;verticalAlign=middle;resizable=0;points=[];" vertex="1" connectable="0" parent="4zln1qysueoRD7-S1MVT-112">
          <mxGeometry x="-0.6823" y="1" relative="1" as="geometry">
            <mxPoint y="-1" as="offset" />
          </mxGeometry>
        </mxCell>
        <mxCell id="4zln1qysueoRD7-S1MVT-116" value="&lt;h1 style=&quot;margin-top: 0px;&quot;&gt;&lt;table style=&quot;font-family: &amp;quot;Liberation Sans&amp;quot;; font-size: x-small;&quot; border=&quot;0&quot; cellspacing=&quot;0&quot;&gt;&lt;colgroup width=&quot;259&quot;&gt;&lt;/colgroup&gt;&lt;colgroup width=&quot;43&quot;&gt;&lt;/colgroup&gt;&lt;colgroup width=&quot;123&quot;&gt;&lt;/colgroup&gt;&lt;colgroup width=&quot;85&quot;&gt;&lt;/colgroup&gt;&lt;colgroup width=&quot;206&quot;&gt;&lt;/colgroup&gt;&lt;tbody&gt;&lt;tr&gt;&lt;td style=&quot;border-width: 1px; border-style: solid; border-color: rgb(0, 0, 0);&quot; valign=&quot;middle&quot; align=&quot;center&quot; height=&quot;23&quot; colspan=&quot;5&quot;&gt;&lt;font size=&quot;4&quot;&gt;Права доступа&lt;/font&gt;&lt;/td&gt;&lt;/tr&gt;&lt;tr&gt;&lt;td style=&quot;border-width: 1px; border-style: solid; border-color: rgb(0, 0, 0);&quot; align=&quot;left&quot; height=&quot;17&quot;&gt;&lt;br&gt;&lt;/td&gt;&lt;td style=&quot;border-width: 1px; border-style: solid; border-color: rgb(0, 0, 0);&quot; align=&quot;left&quot;&gt;Врач&lt;/td&gt;&lt;td style=&quot;border-width: 1px; border-style: solid; border-color: rgb(0, 0, 0);&quot; align=&quot;left&quot;&gt;Администратор&lt;/td&gt;&lt;td style=&quot;border-width: 1px; border-style: solid; border-color: rgb(0, 0, 0);&quot; align=&quot;left&quot;&gt;Кассир&lt;/td&gt;&lt;td style=&quot;border-width: 1px; border-style: solid; border-color: rgb(0, 0, 0);&quot; align=&quot;left&quot;&gt;Аналитик&lt;/td&gt;&lt;/tr&gt;&lt;tr&gt;&lt;td style=&quot;border-width: 1px; border-style: solid; border-color: rgb(0, 0, 0);&quot; align=&quot;left&quot; height=&quot;17&quot;&gt;ФИО&lt;/td&gt;&lt;td style=&quot;border-width: 1px; border-style: solid; border-color: rgb(0, 0, 0);&quot; align=&quot;left&quot;&gt;RO&lt;/td&gt;&lt;td style=&quot;border-width: 1px; border-style: solid; border-color: rgb(0, 0, 0);&quot; align=&quot;left&quot;&gt;RW&lt;/td&gt;&lt;td style=&quot;border-width: 1px; border-style: solid; border-color: rgb(0, 0, 0);&quot; align=&quot;left&quot;&gt;RO&lt;/td&gt;&lt;td style=&quot;border-width: 1px; border-style: solid; border-color: rgb(0, 0, 0);&quot; align=&quot;left&quot;&gt;RO(обезличивание)&lt;/td&gt;&lt;/tr&gt;&lt;tr&gt;&lt;td style=&quot;border-width: 1px; border-style: solid; border-color: rgb(0, 0, 0);&quot; align=&quot;left&quot; height=&quot;17&quot;&gt;Дата рождения&lt;/td&gt;&lt;td style=&quot;border-width: 1px; border-style: solid; border-color: rgb(0, 0, 0);&quot; align=&quot;left&quot;&gt;RO&lt;/td&gt;&lt;td style=&quot;border-width: 1px; border-style: solid; border-color: rgb(0, 0, 0);&quot; align=&quot;left&quot;&gt;RW&lt;/td&gt;&lt;td style=&quot;border-width: 1px; border-style: solid; border-color: rgb(0, 0, 0);&quot; align=&quot;left&quot;&gt;RO&lt;/td&gt;&lt;td style=&quot;border-width: 1px; border-style: solid; border-color: rgb(0, 0, 0);&quot; align=&quot;left&quot;&gt;RO(обезличивание)&lt;/td&gt;&lt;/tr&gt;&lt;tr&gt;&lt;td style=&quot;border-width: 1px; border-style: solid; border-color: rgb(0, 0, 0);&quot; align=&quot;left&quot; height=&quot;17&quot;&gt;Телефон&lt;/td&gt;&lt;td style=&quot;border-width: 1px; border-style: solid; border-color: rgb(0, 0, 0);&quot; align=&quot;left&quot;&gt;-&lt;/td&gt;&lt;td style=&quot;border-width: 1px; border-style: solid; border-color: rgb(0, 0, 0);&quot; align=&quot;left&quot;&gt;RW&lt;/td&gt;&lt;td style=&quot;border-width: 1px; border-style: solid; border-color: rgb(0, 0, 0);&quot; align=&quot;left&quot;&gt;-&lt;/td&gt;&lt;td style=&quot;border-width: 1px; border-style: solid; border-color: rgb(0, 0, 0);&quot; align=&quot;left&quot;&gt;RO(обезличивание)&lt;/td&gt;&lt;/tr&gt;&lt;tr&gt;&lt;td style=&quot;border-width: 1px; border-style: solid; border-color: rgb(0, 0, 0);&quot; align=&quot;left&quot; height=&quot;17&quot;&gt;email&lt;/td&gt;&lt;td style=&quot;border-width: 1px; border-style: solid; border-color: rgb(0, 0, 0);&quot; align=&quot;left&quot;&gt;-&lt;/td&gt;&lt;td style=&quot;border-width: 1px; border-style: solid; border-color: rgb(0, 0, 0);&quot; align=&quot;left&quot;&gt;RW&lt;/td&gt;&lt;td style=&quot;border-width: 1px; border-style: solid; border-color: rgb(0, 0, 0);&quot; align=&quot;left&quot;&gt;RO&lt;/td&gt;&lt;td style=&quot;border-width: 1px; border-style: solid; border-color: rgb(0, 0, 0);&quot; align=&quot;left&quot;&gt;RO(обезличивание)&lt;/td&gt;&lt;/tr&gt;&lt;tr&gt;&lt;td style=&quot;border-width: 1px; border-style: solid; border-color: rgb(0, 0, 0);&quot; align=&quot;left&quot; height=&quot;17&quot;&gt;Паспортные данные&lt;/td&gt;&lt;td style=&quot;border-width: 1px; border-style: solid; border-color: rgb(0, 0, 0);&quot; align=&quot;left&quot;&gt;-&lt;/td&gt;&lt;td style=&quot;border-width: 1px; border-style: solid; border-color: rgb(0, 0, 0);&quot; align=&quot;left&quot;&gt;RW&lt;/td&gt;&lt;td style=&quot;border-width: 1px; border-style: solid; border-color: rgb(0, 0, 0);&quot; align=&quot;left&quot;&gt;RO&lt;/td&gt;&lt;td style=&quot;border-width: 1px; border-style: solid; border-color: rgb(0, 0, 0);&quot; align=&quot;left&quot;&gt;RO(обезличивание)&lt;/td&gt;&lt;/tr&gt;&lt;tr&gt;&lt;td style=&quot;border-width: 1px; border-style: solid; border-color: rgb(0, 0, 0);&quot; align=&quot;left&quot; height=&quot;17&quot;&gt;Адрес регистрации&lt;/td&gt;&lt;td style=&quot;border-width: 1px; border-style: solid; border-color: rgb(0, 0, 0);&quot; align=&quot;left&quot;&gt;-&lt;/td&gt;&lt;td style=&quot;border-width: 1px; border-style: solid; border-color: rgb(0, 0, 0);&quot; align=&quot;left&quot;&gt;RW&lt;/td&gt;&lt;td style=&quot;border-width: 1px; border-style: solid; border-color: rgb(0, 0, 0);&quot; align=&quot;left&quot;&gt;RO&lt;/td&gt;&lt;td style=&quot;border-width: 1px; border-style: solid; border-color: rgb(0, 0, 0);&quot; align=&quot;left&quot;&gt;RO(частичное обезличивание)&lt;/td&gt;&lt;/tr&gt;&lt;tr&gt;&lt;td style=&quot;border-width: 1px; border-style: solid; border-color: rgb(0, 0, 0);&quot; align=&quot;left&quot; height=&quot;17&quot;&gt;Место работы/учебы&lt;/td&gt;&lt;td style=&quot;border-width: 1px; border-style: solid; border-color: rgb(0, 0, 0);&quot; align=&quot;left&quot;&gt;-&lt;/td&gt;&lt;td style=&quot;border-width: 1px; border-style: solid; border-color: rgb(0, 0, 0);&quot; align=&quot;left&quot;&gt;RW&lt;/td&gt;&lt;td style=&quot;border-width: 1px; border-style: solid; border-color: rgb(0, 0, 0);&quot; align=&quot;left&quot;&gt;&lt;br&gt;&lt;/td&gt;&lt;td style=&quot;border-width: 1px; border-style: solid; border-color: rgb(0, 0, 0);&quot; align=&quot;left&quot;&gt;RO&lt;/td&gt;&lt;/tr&gt;&lt;tr&gt;&lt;td style=&quot;border-width: 1px; border-style: solid; border-color: rgb(0, 0, 0);&quot; align=&quot;left&quot; height=&quot;17&quot;&gt;Клиентский договор&lt;/td&gt;&lt;td style=&quot;border-width: 1px; border-style: solid; border-color: rgb(0, 0, 0);&quot; align=&quot;left&quot;&gt;-&lt;/td&gt;&lt;td style=&quot;border-width: 1px; border-style: solid; border-color: rgb(0, 0, 0);&quot; align=&quot;left&quot;&gt;RW&lt;/td&gt;&lt;td style=&quot;border-width: 1px; border-style: solid; border-color: rgb(0, 0, 0);&quot; align=&quot;left&quot;&gt;&lt;br&gt;&lt;/td&gt;&lt;td style=&quot;border-width: 1px; border-style: solid; border-color: rgb(0, 0, 0);&quot; align=&quot;left&quot;&gt;-&lt;/td&gt;&lt;/tr&gt;&lt;tr&gt;&lt;td style=&quot;border-width: 1px; border-style: solid; border-color: rgb(0, 0, 0);&quot; align=&quot;left&quot; height=&quot;17&quot;&gt;Карта пациента&lt;/td&gt;&lt;td style=&quot;border-width: 1px; border-style: solid; border-color: rgb(0, 0, 0);&quot; align=&quot;left&quot;&gt;RW&lt;/td&gt;&lt;td style=&quot;border-width: 1px; border-style: solid; border-color: rgb(0, 0, 0);&quot; align=&quot;left&quot;&gt;-&lt;/td&gt;&lt;td style=&quot;border-width: 1px; border-style: solid; border-color: rgb(0, 0, 0);&quot; align=&quot;left&quot;&gt;-&lt;/td&gt;&lt;td style=&quot;border-width: 1px; border-style: solid; border-color: rgb(0, 0, 0);&quot; align=&quot;left&quot;&gt;RO(только диагназы)&lt;/td&gt;&lt;/tr&gt;&lt;tr&gt;&lt;td style=&quot;border-width: 1px; border-style: solid; border-color: rgb(0, 0, 0);&quot; align=&quot;left&quot; height=&quot;17&quot;&gt;Расписание&lt;/td&gt;&lt;td style=&quot;border-width: 1px; border-style: solid; border-color: rgb(0, 0, 0);&quot; align=&quot;left&quot;&gt;RW&lt;/td&gt;&lt;td style=&quot;border-width: 1px; border-style: solid; border-color: rgb(0, 0, 0);&quot; align=&quot;left&quot;&gt;RW&lt;/td&gt;&lt;td style=&quot;border-width: 1px; border-style: solid; border-color: rgb(0, 0, 0);&quot; align=&quot;left&quot;&gt;-&lt;/td&gt;&lt;td style=&quot;border-width: 1px; border-style: solid; border-color: rgb(0, 0, 0);&quot; align=&quot;left&quot;&gt;RO(обезличивание)&lt;/td&gt;&lt;/tr&gt;&lt;tr&gt;&lt;td style=&quot;border-width: 1px; border-style: solid; border-color: rgb(0, 0, 0);&quot; align=&quot;left&quot; height=&quot;17&quot;&gt;Забор анализов&lt;/td&gt;&lt;td style=&quot;border-width: 1px; border-style: solid; border-color: rgb(0, 0, 0);&quot; align=&quot;left&quot;&gt;RW&lt;/td&gt;&lt;td style=&quot;border-width: 1px; border-style: solid; border-color: rgb(0, 0, 0);&quot; align=&quot;left&quot;&gt;-&lt;/td&gt;&lt;td style=&quot;border-width: 1px; border-style: solid; border-color: rgb(0, 0, 0);&quot; align=&quot;left&quot;&gt;RO&lt;/td&gt;&lt;td style=&quot;border-width: 1px; border-style: solid; border-color: rgb(0, 0, 0);&quot; align=&quot;left&quot;&gt;RO(обезличивание)&lt;/td&gt;&lt;/tr&gt;&lt;tr&gt;&lt;td style=&quot;border-width: 1px; border-style: solid; border-color: rgb(0, 0, 0);&quot; align=&quot;left&quot; height=&quot;17&quot;&gt;Результаты анализов&lt;/td&gt;&lt;td style=&quot;border-width: 1px; border-style: solid; border-color: rgb(0, 0, 0);&quot; align=&quot;left&quot;&gt;RW&lt;/td&gt;&lt;td style=&quot;border-width: 1px; border-style: solid; border-color: rgb(0, 0, 0);&quot; align=&quot;left&quot;&gt;-&lt;/td&gt;&lt;td style=&quot;border-width: 1px; border-style: solid; border-color: rgb(0, 0, 0);&quot; align=&quot;left&quot;&gt;-&lt;/td&gt;&lt;td style=&quot;border-width: 1px; border-style: solid; border-color: rgb(0, 0, 0);&quot; align=&quot;left&quot;&gt;-&lt;/td&gt;&lt;/tr&gt;&lt;tr&gt;&lt;td style=&quot;border-width: 1px; border-style: solid; border-color: rgb(0, 0, 0);&quot; align=&quot;left&quot; height=&quot;17&quot;&gt;1C: Оплата услуг&lt;/td&gt;&lt;td style=&quot;border-width: 1px; border-style: solid; border-color: rgb(0, 0, 0);&quot; align=&quot;left&quot;&gt;-&lt;/td&gt;&lt;td style=&quot;border-width: 1px; border-style: solid; border-color: rgb(0, 0, 0);&quot; align=&quot;left&quot;&gt;-&lt;/td&gt;&lt;td style=&quot;border-width: 1px; border-style: solid; border-color: rgb(0, 0, 0);&quot; align=&quot;left&quot;&gt;RW&lt;/td&gt;&lt;td style=&quot;border-width: 1px; border-style: solid; border-color: rgb(0, 0, 0);&quot; align=&quot;left&quot;&gt;RO&lt;/td&gt;&lt;/tr&gt;&lt;/tbody&gt;&lt;/table&gt;&lt;/h1&gt;" style="text;html=1;whiteSpace=wrap;overflow=hidden;rounded=0;" vertex="1" parent="1">
          <mxGeometry x="-1920" y="-400" width="520" height="350" as="geometry" />
        </mxCell>
      </root>
    </mxGraphModel>
  </diagram>
</mxfile>
